<svg width="119" height="46" viewBox="0 0 119 46" fill="none" xmlns="http://www.w3.org/2000/svg">
<path d="M9.888 17.6495C9.632 17.4414 9.368 17.2973 9.096 17.2173C8.824 17.1212 8.488 17.0732 8.088 17.0732C7.256 17.0732 6.6 17.2653 6.12 17.6495C5.64 18.0336 5.4 18.5458 5.4 19.1861C5.4 19.9864 5.648 20.6747 6.144 21.2509C6.64 21.8271 7.504 22.4994 8.736 23.2677C9.856 23.988 10.744 24.7643 11.4 25.5966C12.056 26.429 12.384 27.3894 12.384 28.4778C12.4 29.4702 12.152 30.3826 11.64 31.2149C11.128 32.0312 10.352 32.6875 9.312 33.1837C8.288 33.6799 7.032 33.928 5.544 33.928C4.344 33.928 3.192 33.7999 2.088 33.5438C1 33.2877 0.304 33.0316 0 32.7755L0.672 29.078H3.072L3.192 31.6951C3.768 32.1913 4.52 32.4394 5.448 32.4394C6.552 32.4394 7.352 32.2233 7.848 31.7911C8.36 31.3429 8.616 30.7507 8.616 30.0144C8.616 29.2941 8.384 28.6619 7.92 28.1176C7.472 27.5574 6.688 26.9252 5.568 26.2209C4.384 25.4686 3.456 24.6603 2.784 23.7959C2.112 22.9316 1.776 21.9232 1.776 20.7707C1.776 19.1381 2.384 17.8735 3.6 16.9772C4.832 16.0648 6.424 15.6086 8.376 15.6086C10.504 15.6086 12.064 15.8968 13.056 16.473L12.432 20.0024H10.224L9.888 17.6495Z" fill="#0C0D12"/>
<path d="M21.8269 24.1801C21.3789 23.4918 20.9869 22.9316 20.6509 22.4994C20.3149 22.0672 20.0349 21.8511 19.8109 21.8511C19.3789 21.8511 18.9469 22.1152 18.5149 22.6435C18.0829 23.1717 17.7229 23.9 17.4349 24.8283C17.1629 25.7567 17.0269 26.7891 17.0269 27.9256C17.0269 29.2861 17.1869 30.2545 17.5069 30.8307C17.8429 31.407 18.3789 31.6951 19.1149 31.6951C19.8029 31.6951 20.3789 31.567 20.8429 31.3109C21.3229 31.0388 21.7389 30.6707 22.0909 30.2065L22.8349 31.407C22.4349 32.0312 21.7789 32.6074 20.8669 33.1357C19.9549 33.6479 18.8749 33.904 17.6269 33.904C16.2029 33.904 15.0909 33.4158 14.2909 32.4394C13.4909 31.463 13.0909 30.0544 13.0909 28.2137C13.0909 26.8531 13.3709 25.5486 13.9309 24.3001C14.5069 23.0356 15.3629 22.0112 16.4989 21.2269C17.6349 20.4266 19.0109 20.0264 20.6269 20.0264C21.1549 20.0264 21.6909 20.0664 22.2349 20.1465C22.7949 20.2265 23.2589 20.3385 23.6269 20.4826L22.6669 24.2041L21.8269 24.1801Z" fill="#0C0D12"/>
<path d="M34.4454 31.0228C34.4294 31.1028 34.4214 31.2069 34.4214 31.3349C34.4214 31.7191 34.5814 31.9112 34.9014 31.9112C35.1734 31.9112 35.5254 31.7351 35.9574 31.383L36.2934 32.1993C36.0694 32.5514 35.6694 32.9276 35.0934 33.3277C34.5174 33.7119 33.8374 33.904 33.0534 33.904C32.4774 33.904 32.0134 33.7839 31.6614 33.5438C31.3094 33.3037 31.1174 32.9596 31.0854 32.5114V32.3673C30.0934 33.3918 28.9014 33.904 27.5094 33.904C26.1174 33.904 25.0774 33.4398 24.3894 32.5114C23.7014 31.583 23.3574 30.3986 23.3574 28.958C23.3574 27.4054 23.6614 25.9488 24.2694 24.5882C24.8934 23.2117 25.8134 22.1072 27.0294 21.2749C28.2454 20.4426 29.7014 20.0264 31.3974 20.0264C31.8134 20.0264 32.2774 20.0824 32.7894 20.1945C33.3174 20.2905 33.7734 20.4026 34.1574 20.5306L35.9574 20.0264L34.4454 31.0228ZM31.9494 21.7311C31.5974 21.6671 31.3254 21.6351 31.1334 21.6351C30.2374 21.6351 29.5014 21.9952 28.9254 22.7155C28.3654 23.4358 27.9654 24.3401 27.7254 25.4286C27.4854 26.517 27.3654 27.6455 27.3654 28.8139C27.3654 29.7743 27.5174 30.5266 27.8214 31.0708C28.1414 31.615 28.5734 31.8872 29.1174 31.8872C29.6294 31.8872 30.1414 31.6471 30.6534 31.1669L31.9494 21.7311Z" fill="#0C0D12"/>
<path d="M42.0966 22.7875C42.6406 21.9392 43.2886 21.2669 44.0406 20.7707C44.7926 20.2745 45.6166 20.0264 46.5126 20.0264C48.5926 20.0264 49.6326 21.2109 49.6326 23.5798C49.6326 24.044 49.4406 25.4286 49.0566 27.7335C49.0246 27.9736 48.9606 28.3497 48.8646 28.8619C48.6406 30.0464 48.5286 30.8467 48.5286 31.2629C48.5286 31.6951 48.6806 31.9112 48.9846 31.9112C49.1126 31.9112 49.2486 31.8792 49.3926 31.8151C49.5526 31.7351 49.7686 31.591 50.0406 31.383L50.3766 32.1993C50.1046 32.5674 49.6806 32.9436 49.1046 33.3277C48.5286 33.7119 47.7926 33.904 46.8966 33.904C45.9686 33.904 45.3446 33.7199 45.0246 33.3517C44.7046 32.9836 44.5446 32.5114 44.5446 31.9352C44.5446 31.503 44.6806 30.6066 44.9526 29.2461L45.0966 28.4778C45.4486 26.477 45.6246 25.0284 45.6246 24.1321C45.6246 23.4438 45.5526 22.9716 45.4086 22.7155C45.2646 22.4594 45.0246 22.3313 44.6886 22.3313C44.2246 22.3313 43.7206 22.6114 43.1766 23.1717C42.6326 23.7159 42.1686 24.3962 41.7846 25.2125L40.6326 33.6639H36.9126L38.4246 22.3553L37.1766 21.6831L37.3686 20.6507L41.6886 20.0264L42.2886 20.3145L42.0966 22.7875Z" fill="#0C0D12"/>
<path d="M62.2984 30.9988C62.2824 31.0788 62.2744 31.1909 62.2744 31.3349C62.2744 31.7191 62.4184 31.9112 62.7064 31.9112C62.9624 31.9112 63.3224 31.7351 63.7864 31.383L64.1224 32.1993C63.7544 32.6154 63.3144 33.0076 62.8024 33.3757C62.3064 33.7279 61.6584 33.904 60.8584 33.904C60.2344 33.904 59.7624 33.7599 59.4424 33.4718C59.1224 33.1677 58.9224 32.7275 58.8424 32.1513L58.8184 31.9352C58.4344 32.4794 57.9144 32.9436 57.2584 33.3277C56.6024 33.7119 55.8264 33.904 54.9304 33.904C53.5544 33.904 52.5384 33.4478 51.8824 32.5354C51.2264 31.607 50.8984 30.4146 50.8984 28.958C50.8984 27.3894 51.1944 25.9248 51.7864 24.5642C52.3784 23.2037 53.2664 22.1072 54.4504 21.2749C55.6504 20.4426 57.1144 20.0264 58.8424 20.0264C59.2104 20.0264 59.6184 20.0664 60.0664 20.1465L60.6184 16.2809L58.7944 15.7767L59.0104 14.8163L64.0264 14.3121L64.6504 14.6483L62.2984 30.9988ZM59.8024 21.8511C59.3704 21.7071 58.9544 21.6351 58.5544 21.6351C57.2424 21.6351 56.2984 22.3553 55.7224 23.7959C55.1464 25.2365 54.8584 26.9092 54.8584 28.8139C54.8584 29.7743 55.0024 30.5266 55.2904 31.0708C55.5944 31.615 56.0104 31.8872 56.5384 31.8872C56.9224 31.8872 57.2824 31.7751 57.6184 31.551C57.9704 31.3109 58.2664 31.0068 58.5064 30.6387L59.8024 21.8511Z" fill="#0C0D12"/>
<path d="M68.8817 31.0228C68.8657 31.0868 68.8577 31.1829 68.8577 31.3109C68.8577 31.7111 69.0097 31.9112 69.3137 31.9112C69.4417 31.9112 69.5777 31.8792 69.7217 31.8151C69.8817 31.7351 70.1057 31.591 70.3937 31.383L70.7057 32.1993C69.8737 33.3357 68.7857 33.904 67.4417 33.904C66.7537 33.904 66.1697 33.7759 65.6897 33.5198C65.2257 33.2637 64.9857 32.8635 64.9697 32.3193C64.9697 32.2233 65.0017 31.9192 65.0657 31.407L67.0817 16.2809L65.5217 15.7767L65.7617 14.8163L70.4657 14.3121L71.0657 14.6483L68.8817 31.0228Z" fill="#0C0D12"/>
<path d="M81.7354 31.1669C81.3034 31.8551 80.6154 32.5034 79.6714 33.1116C78.7274 33.7039 77.5914 34 76.2634 34C75.0794 34 74.1034 33.7519 73.3354 33.2557C72.5674 32.7435 72.0074 32.0792 71.6554 31.2629C71.3034 30.4466 71.1274 29.5662 71.1274 28.6218C71.1274 26.9892 71.4554 25.5166 72.1114 24.2041C72.7834 22.8916 73.6954 21.8671 74.8474 21.1309C76.0154 20.3786 77.3034 20.0024 78.7114 20.0024C80.0234 20.0024 80.9914 20.2905 81.6154 20.8667C82.2394 21.443 82.5514 22.1873 82.5514 23.0996C82.5514 24.2681 82.1674 25.2445 81.3994 26.0288C80.6314 26.7971 79.6874 27.3653 78.5674 27.7335C77.4634 28.1016 76.3674 28.3017 75.2794 28.3337C75.2634 29.5182 75.4474 30.4146 75.8314 31.0228C76.2314 31.6311 76.7834 31.9352 77.4874 31.9352C78.3034 31.9352 78.9834 31.7511 79.5274 31.383C80.0874 31.0148 80.5754 30.5506 80.9914 29.9904L81.7354 31.1669ZM77.8714 21.6351C77.0394 21.6351 76.4154 22.1713 75.9994 23.2437C75.5994 24.3161 75.3594 25.5406 75.2794 26.9172C75.7754 26.8852 76.3034 26.7331 76.8634 26.461C77.4234 26.1729 77.8954 25.7647 78.2794 25.2365C78.6634 24.7083 78.8554 24.092 78.8554 23.3878C78.8554 22.2193 78.5274 21.6351 77.8714 21.6351Z" fill="#0C0D12"/>
<path d="M87.2876 33.904C86.3756 33.904 85.6956 33.6959 85.2476 33.2797C84.7996 32.8635 84.5756 32.1513 84.5756 31.1429V21.9232H82.8476V20.8427C82.9276 20.8267 83.1516 20.7707 83.5196 20.6747C83.8876 20.5786 84.1356 20.4906 84.2636 20.4106C84.5196 20.2665 84.7196 19.9784 84.8636 19.5462C84.9916 19.2421 85.1436 18.7539 85.3196 18.0816C85.4956 17.4094 85.5996 17.0092 85.6316 16.8812H87.0476L87.0956 20.3385H91.1036V21.9232H87.0956V29.2941C87.0956 30.2065 87.1196 30.8467 87.1676 31.2149C87.2316 31.583 87.3516 31.8231 87.5276 31.9352C87.7196 32.0472 88.0396 32.1032 88.4876 32.1032C88.9196 32.1032 89.3916 32.0472 89.9036 31.9352C90.4316 31.8231 90.8396 31.7031 91.1276 31.575L91.4876 32.6555C91.1036 32.9436 90.4796 33.2237 89.6156 33.4958C88.7676 33.7679 87.9916 33.904 87.2876 33.904Z" fill="#0C0D12"/>
<path d="M98.8611 33.928C96.9251 33.928 95.4451 33.2957 94.4211 32.0312C93.4131 30.7667 92.9091 29.078 92.9091 26.9652C92.9091 25.5726 93.1731 24.3481 93.7011 23.2917C94.2291 22.2353 94.9651 21.419 95.9091 20.8427C96.8691 20.2665 97.9571 19.9784 99.1731 19.9784C100.661 19.9784 101.813 20.3946 102.629 21.2269C103.461 22.0432 103.901 23.2197 103.949 24.7563C103.949 25.7327 103.893 26.477 103.781 26.9892H95.5251C95.5571 28.5738 95.9251 29.8543 96.6291 30.8307C97.3331 31.7911 98.3331 32.2713 99.6291 32.2713C100.269 32.2713 100.933 32.1593 101.621 31.9352C102.325 31.6951 102.869 31.415 103.253 31.0948L103.709 32.1513C103.245 32.6315 102.557 33.0476 101.645 33.3998C100.733 33.7519 99.8051 33.928 98.8611 33.928ZM101.309 25.7167C101.357 25.3806 101.381 25.0364 101.381 24.6843C101.365 23.6439 101.141 22.8275 100.709 22.2353C100.293 21.6271 99.6291 21.3229 98.7171 21.3229C97.7891 21.3229 97.0451 21.6591 96.4851 22.3313C95.9411 23.0036 95.6291 24.1321 95.5491 25.7167H101.309Z" fill="#0C0D12"/>
<path d="M111.196 33.928C110.236 33.928 109.356 33.6879 108.556 33.2077C107.756 32.7275 107.116 31.9912 106.636 30.9988C106.172 30.0064 105.94 28.7819 105.94 27.3253C105.94 25.9648 106.22 24.7243 106.78 23.6038C107.34 22.4834 108.14 21.603 109.18 20.9628C110.236 20.3065 111.476 19.9784 112.9 19.9784C113.716 19.9784 114.46 20.0664 115.132 20.2425V15.7527L112.684 15.4646V14.4322L117.004 14H117.076L117.604 14.3842V32.4394H118.996V33.5438C118.484 33.6559 118.036 33.7439 117.652 33.8079C117.284 33.8719 116.892 33.904 116.476 33.904C116.06 33.904 115.764 33.8319 115.588 33.6879C115.412 33.5438 115.324 33.2397 115.324 32.7755V32.0072C114.876 32.5514 114.284 33.0076 113.548 33.3757C112.828 33.7439 112.044 33.928 111.196 33.928ZM112.156 32.2233C112.78 32.2233 113.364 32.0872 113.908 31.8151C114.452 31.527 114.86 31.1989 115.132 30.8307V22.0432C115.004 21.8511 114.7 21.6831 114.22 21.539C113.756 21.379 113.26 21.2989 112.732 21.2989C111.484 21.2989 110.484 21.7791 109.732 22.7395C108.996 23.6839 108.628 25.1485 108.628 27.1333C108.628 28.8619 108.956 30.1425 109.612 30.9748C110.268 31.8071 111.116 32.2233 112.156 32.2233Z" fill="#0C0D12"/>
<path fill-rule="evenodd" clip-rule="evenodd" d="M65.7182 11.9546C67.0282 11.6369 68 10.4695 68 9.07794C68 7.442 66.6569 4 65 4C63.3431 4 62 7.442 62 9.07794C62 10.3917 62.8662 11.5058 64.0655 11.8936L64.2673 11.0401L64.4648 10.2048L65.1 7.51753L65.4811 10.2524L65.5908 11.0401L65.7182 11.9546Z" fill="#0C0D12"/>
</svg>
